<svg width="158" height="29" viewBox="0 0 158 29" fill="none" xmlns="http://www.w3.org/2000/svg">
<g clip-path="url(#clip0_275_219)">
<path fill-rule="evenodd" clip-rule="evenodd" d="M14.1229 0.149694C1.59215 2.0794 -3.48262 16.0269 5.18637 24.7108C15.3754 34.9173 32.6631 25.217 29.3602 11.1468C27.8095 4.54068 20.3887 -0.815162 14.1229 0.149694ZM13.0338 6.44914C13.033 6.56162 12.9196 7.0823 12.782 7.60653C12.6442 8.13076 12.3917 9.26419 12.2204 10.1256L11.9094 11.6914H10.4044C9.16391 11.6914 8.92739 11.6182 9.05929 11.2739C9.14734 11.0443 9.36675 10.055 9.54701 9.07518C9.79056 7.75114 10.0456 7.1591 10.54 6.7694C11.1795 6.26559 13.0371 6.02704 13.0338 6.44914ZM17.8302 7.27674C19.0198 8.8453 17.3677 11.6914 15.2677 11.6914C14.784 11.6914 15.1505 8.67106 15.8872 6.5883C16.0408 6.15395 17.3229 6.60819 17.8302 7.27674ZM23.6419 6.44914C23.6654 7.6177 21.3076 11.6914 20.6078 11.6914C19.6965 11.6914 19.7033 11.748 20.2848 9.09698C20.6572 7.39984 20.863 6.96357 21.4402 6.64931C22.1899 6.24109 23.6351 6.10956 23.6419 6.44914ZM10.9699 13.9144C11.1964 14.2385 11.3184 14.6061 11.2409 14.7314C11.1637 14.8567 11.6582 14.9593 12.3398 14.9593C13.0213 14.9593 13.5792 15.0819 13.5792 15.2317C13.5792 15.3814 13.0333 15.504 12.3664 15.504C11.0397 15.504 10.5343 16.3912 10.5343 18.7194C10.5343 19.221 10.3639 19.959 10.1554 20.359C9.94714 20.7593 9.77587 21.2912 9.77477 21.5409C9.77094 22.6221 9.46895 22.8568 8.08193 22.8568H6.72101L6.91049 21.5913C7.01462 20.8953 7.19975 20.1295 7.32181 19.8893C7.44388 19.6491 7.68338 18.5206 7.85411 17.3809C8.47313 13.2478 9.61522 11.9774 10.9699 13.9144ZM16.6862 13.7532C16.9211 13.9888 17.1133 14.3564 17.1133 14.5702C17.1133 14.8038 17.3852 14.9593 17.7929 14.9593C18.1667 14.9593 18.4726 15.0819 18.4726 15.2317C18.4726 15.3814 18.12 15.504 17.6893 15.504C16.8311 15.504 16.2977 16.7964 16.2977 18.8765C16.2977 19.4005 16.1754 19.9047 16.0258 19.9973C15.8764 20.09 15.754 20.4514 15.754 20.8002C15.754 21.8348 14.9241 22.6017 13.6137 22.7779L12.4306 22.9369L12.6285 21.7394C12.7375 21.081 12.9446 20.3171 13.089 20.0423C13.2334 19.7672 13.3853 19.0932 13.4269 18.5445C13.4682 17.9955 13.7154 16.5968 13.9758 15.4359L14.4494 13.3254H15.3541C15.8516 13.3254 16.4511 13.5179 16.6862 13.7532ZM20.9193 14.1423C20.9193 14.9424 20.9478 14.9593 22.2946 14.9593C23.1423 14.9593 23.6055 15.0639 23.502 15.2317C23.4096 15.3814 22.7824 15.504 22.1084 15.504C21.0674 15.504 20.9044 15.5759 21.0267 15.9806C21.2622 16.7605 21.2966 19.4698 21.0753 19.8286C20.9628 20.0112 20.7285 20.7367 20.555 21.4407L20.2397 22.7207L18.8124 22.8029C18.0273 22.8483 17.386 22.7871 17.3868 22.6668C17.3892 22.2827 17.9455 20.289 18.2073 19.725C18.3465 19.4255 18.4329 18.9966 18.3994 18.7719C18.1572 17.1434 19.3757 13.3254 20.1375 13.3254C20.825 13.3254 20.9193 13.424 20.9193 14.1423ZM7.73423 15.2317C7.64179 15.3814 7.32888 15.504 7.03854 15.504C6.7482 15.504 6.51086 15.3814 6.51086 15.2317C6.51086 15.0819 6.82404 14.9593 7.20655 14.9593C7.60101 14.9593 7.82965 15.0772 7.73423 15.2317Z" fill="white" fill-opacity="0.4"/>
<path fill-rule="evenodd" clip-rule="evenodd" d="M46.5464 4.55709C45.4428 5.26884 45.1204 6.83983 45.8717 7.84542L46.026 8.05183L47.8393 8.06543C49.2332 8.0759 49.6739 8.06395 49.7444 8.01378C49.8284 7.95409 50.569 4.85919 50.569 4.56772C50.569 4.37931 50.4035 4.36202 48.601 4.36202H46.849L46.5464 4.55709ZM53.6313 4.44671C53.5892 4.49331 53.3646 5.3816 53.1323 6.42063L52.7099 8.30992L49.3434 8.3357C45.689 8.36367 45.7297 8.36024 45.9154 8.63238C45.9727 8.71653 46.2039 8.72364 49.2775 8.73607C52.3732 8.74857 52.5779 8.7549 52.5762 8.83928C52.5752 8.88867 52.4182 9.62587 52.2274 10.4773L51.8804 12.0255L50.4155 12.0393C49.154 12.0511 48.9506 12.0424 48.9506 11.9768C48.9506 11.9349 49.0885 11.2916 49.257 10.5475C49.6505 8.80998 49.865 9.00657 47.5758 9.00657H45.7721L45.6941 9.12268C45.6511 9.18659 45.2624 10.8295 44.8302 12.7738C44.3978 14.718 43.6413 18.1129 43.1489 20.3178C42.1463 24.8073 42.2244 24.4024 42.3412 24.5105C42.4582 24.6186 45.9096 24.634 46.0655 24.5271C46.1339 24.4801 46.2575 24.0203 46.5199 22.837C46.7181 21.9429 47.122 20.1199 47.4175 18.7859C47.7131 17.4519 47.9925 16.2036 48.0386 16.0121L48.1223 15.6637H49.2879H50.4534L50.649 15.8225C50.9015 16.0275 50.9422 16.2328 50.8305 16.7387C50.7824 16.9564 50.3774 18.7698 49.9304 20.7685C48.946 25.1699 48.7693 24.5916 51.0991 24.5916C53.2991 24.5916 52.9089 25.0959 53.7946 21.1082C54.1981 19.2916 54.981 15.7768 55.5343 13.2975C56.0877 10.8181 56.5404 8.78029 56.5404 8.76904C56.5404 8.75779 57.2059 8.74857 58.0193 8.74857C58.8327 8.74857 59.4982 8.75576 59.4982 8.76459C59.4982 8.77342 59.385 9.28551 59.2467 9.90271C58.9134 11.39 58.7034 11.2258 60.9372 11.2248C63.1279 11.2239 62.8499 11.3817 63.1703 9.95779L63.4365 8.77435L68.1573 8.76115C72.0734 8.75021 72.8886 8.7599 72.9406 8.81787C73.8096 9.78613 71.9373 11.9728 70.2575 11.9517C69.5084 11.9421 69.5629 12.1706 69.9262 10.5623C70.3167 8.83358 70.5326 9.0354 68.2754 9.01876C66.042 9.00227 66.5052 8.2671 65.2734 13.7838C64.7034 16.3363 63.9341 19.7821 63.5638 21.4412L62.8904 24.4578L63.0183 24.5535C63.2287 24.7111 69.3206 24.6622 70.1153 24.4965C75.5676 23.3599 78.142 17.7464 74.9861 13.8756C74.9467 13.8274 74.9881 13.7542 75.1343 13.6137C76.2021 12.5877 76.8897 11.0432 76.9496 9.53555L76.981 8.74857H78.564C79.793 8.74857 80.1469 8.76294 80.1477 8.81303C80.1477 8.84858 80.0414 9.35959 79.9109 9.94881C79.639 11.176 79.6414 11.1905 80.0633 11.2158C81.4213 11.2973 83.1731 10.2656 83.8802 8.96789L83.9998 8.74857H88.7145C91.3078 8.74857 93.4291 8.75474 93.4291 8.76232C93.4291 8.7699 93.0682 9.50726 92.6267 10.4008L91.8242 12.0255L91.064 12.0399C90.3662 12.0531 90.3045 12.0467 90.3061 11.9624C90.3076 11.912 90.4428 11.2785 90.6077 10.5547C90.8765 9.37435 90.8991 9.22683 90.8272 9.12268L90.7483 9.00657L88.9496 9.00735C87.9604 9.00782 87.1166 9.02853 87.0736 9.0533C87.0236 9.08252 86.6939 10.4537 86.1391 12.9359C85.668 15.0464 84.9054 18.4601 84.4444 20.5219C83.5341 24.5974 83.5591 24.4609 83.7154 24.5382C83.881 24.6204 87.2986 24.6101 87.4151 24.5271C87.4807 24.4803 87.7675 23.2813 88.4621 20.1534C88.9887 17.7834 89.4317 15.8037 89.4466 15.754C89.4888 15.6172 90.7843 15.6172 90.8265 15.754C90.8421 15.8037 91.1109 17.7602 91.425 20.1019C91.7781 22.7379 92.0251 24.4035 92.0719 24.4755L92.1485 24.5916H94.0894C95.663 24.5916 96.0514 24.5779 96.1373 24.5196C96.2412 24.4493 96.2272 24.3235 95.5662 19.4648L94.8887 14.482L96.2936 11.6282L97.6985 8.77435L99.2815 8.7606L100.865 8.74685L100.833 8.86382C100.199 11.2238 100.201 11.2317 101.484 11.2138L102.491 11.1998L103.087 9.98709L103.682 8.77435L105.526 8.76076L107.37 8.74716L107.39 9.44022C107.408 10.0875 107.44 10.2592 107.529 10.1771C107.549 10.1587 107.583 9.93998 107.604 9.69119C107.644 9.23981 107.644 9.24035 107.652 9.92255C107.659 10.4926 107.674 10.6063 107.744 10.6063C107.815 10.6063 107.828 10.486 107.828 9.83223C107.828 9.21144 107.843 9.05814 107.905 9.05814C107.986 9.05814 108.049 9.31075 108.051 9.63876C108.051 9.74519 108.076 9.83223 108.107 9.83223C108.142 9.83223 108.162 10.1935 108.162 10.8127C108.162 11.4021 108.184 11.7933 108.216 11.7933C108.245 11.7933 108.276 11.9599 108.286 12.1633C108.327 13.0952 108.44 12.5854 108.455 11.3973C108.473 9.89661 108.625 9.60063 108.652 11.0102C108.676 12.2146 108.795 12.0638 108.833 10.7827C108.852 10.1036 108.869 9.92294 108.888 10.1894C108.927 10.7277 109.055 10.7573 109.055 10.2279C109.055 9.9874 109.079 9.83356 109.118 9.82152C109.152 9.8109 109.2 9.71026 109.223 9.5979C109.259 9.42491 109.267 9.45452 109.273 9.7905C109.276 10.0088 109.304 10.2017 109.334 10.2193C109.366 10.2374 109.391 10.4951 109.391 10.8158C109.391 11.2833 109.405 11.3804 109.474 11.3804C109.543 11.3804 109.558 11.2858 109.558 10.8378C109.558 10.5394 109.583 10.2549 109.614 10.2057C109.645 10.1564 109.692 9.96514 109.719 9.78066C109.756 9.52078 109.769 9.71081 109.774 10.6235C109.783 12.062 109.899 12.3036 109.951 10.9892C109.967 10.5658 109.986 10.3884 109.992 10.5951C110.001 10.8742 110.026 10.9785 110.088 11.0005C110.14 11.019 110.172 11.0978 110.172 11.2096C110.172 11.3302 110.195 11.382 110.242 11.3676C110.292 11.3519 110.319 11.0849 110.341 10.3699C110.357 9.83293 110.376 9.47929 110.383 9.58407C110.389 9.68885 110.42 9.78894 110.451 9.80644C110.485 9.82613 110.506 10.28 110.506 10.9964C110.506 11.9914 110.518 12.1546 110.59 12.1546C110.66 12.1546 110.674 12.0555 110.674 11.5739C110.674 11.2547 110.693 10.7263 110.716 10.4L110.758 9.80644L110.785 10.4C110.826 11.2643 110.919 11.1512 110.955 10.1935C110.972 9.75355 110.991 9.47929 110.997 9.58407C111.003 9.68885 111.034 9.78894 111.064 9.80644C111.096 9.82402 111.121 9.98623 111.121 10.1671C111.121 10.3904 111.147 10.5206 111.204 10.5732C111.263 10.6274 111.288 10.7599 111.288 11.0155C111.288 11.3055 111.305 11.3804 111.371 11.3804C111.442 11.3804 111.455 11.2604 111.455 10.6094C111.455 10.151 111.478 9.82543 111.511 9.80644C111.542 9.78894 111.567 9.65986 111.567 9.51961C111.567 9.37928 111.592 9.26457 111.623 9.26457C111.653 9.26457 111.682 9.15433 111.685 9.01946L111.692 8.77435L111.74 9.07877C111.814 9.54711 111.957 9.54852 111.957 9.08096C111.957 8.86569 111.977 8.80014 112.041 8.80014C112.093 8.80014 112.125 8.84858 112.125 8.92609C112.125 8.9954 112.146 9.06431 112.172 9.07924C112.199 9.09416 112.236 9.27356 112.254 9.47781C112.272 9.68205 112.311 9.86278 112.34 9.87958C112.37 9.8963 112.403 9.97959 112.413 10.0646C112.452 10.3858 112.544 10.1759 112.56 9.72932C112.578 9.20535 112.738 9.00993 112.74 9.50969C112.742 10.0408 112.91 10.0013 112.965 9.45702C112.985 9.25184 113.005 9.15948 113.01 9.25168C113.021 9.47538 113.186 9.48749 113.186 9.26457C113.186 9.17941 113.211 9.10979 113.241 9.10979C113.272 9.10979 113.297 9.07353 113.297 9.02931C113.297 8.98508 113.322 8.96321 113.353 8.98079C113.383 8.99829 113.408 9.06931 113.408 9.13862C113.408 9.20793 113.433 9.26457 113.462 9.26457C113.49 9.26457 113.522 9.3749 113.531 9.50969C113.54 9.64455 113.573 9.75487 113.604 9.75487C113.634 9.75487 113.667 9.64455 113.676 9.50969C113.686 9.3749 113.718 9.26457 113.747 9.26457C113.776 9.26457 113.803 9.1891 113.807 9.0969C113.811 9.00462 113.836 9.13604 113.862 9.38889C113.888 9.64173 113.921 9.85887 113.934 9.87137C114.011 9.94185 114.08 9.78941 114.087 9.5325C114.093 9.34982 114.105 9.30224 114.119 9.40655C114.131 9.49875 114.165 9.57422 114.194 9.57422C114.222 9.57422 114.246 9.60907 114.246 9.65166C114.246 9.69424 114.283 9.72901 114.33 9.72901C114.389 9.72901 114.413 9.67291 114.414 9.53555C114.414 9.42913 114.43 9.25449 114.449 9.14753L114.484 8.95297L114.558 9.08494C114.598 9.15753 114.639 9.40756 114.648 9.64072C114.67 10.2202 114.769 10.1791 114.807 9.57422C114.824 9.30458 114.843 9.18128 114.849 9.30028C114.869 9.70893 115.009 9.66822 115.077 9.23355C115.103 9.06619 115.128 8.96977 115.132 9.01946C115.135 9.06916 115.163 9.10979 115.195 9.10979C115.225 9.10979 115.25 9.17941 115.25 9.26457C115.25 9.34974 115.272 9.41944 115.299 9.41944C115.326 9.41944 115.363 9.48906 115.381 9.57422C115.457 9.92388 115.549 9.73628 115.617 9.0969L115.654 8.74857H119.712H123.771L123.833 8.87546C124.454 10.1352 122.699 11.993 120.883 11.9985L120.461 11.9997L120.755 10.6966C121.071 9.30005 121.091 9.16409 120.988 9.06845C120.79 8.88593 117.148 9.00329 117.148 9.1923C117.148 9.20527 116.394 12.5895 115.473 16.7131C113.758 24.3978 113.752 24.424 113.866 24.5297C113.948 24.605 117.464 24.6176 117.591 24.5429C117.645 24.5112 117.99 23.069 118.655 20.0928L119.64 15.6896H120.276H120.912L121.502 20.0582C121.883 22.882 122.118 24.456 122.166 24.5092C122.269 24.6244 126.048 24.6347 126.217 24.5203C126.319 24.451 126.303 24.3066 125.651 19.4819L124.98 14.515L125.66 13.8895C127.151 12.5191 127.98 10.6685 127.822 9.06353L127.792 8.74857H132.85C135.632 8.74857 137.909 8.76646 137.909 8.78834C137.909 8.82756 137.734 9.61087 136.257 16.2314C135.244 20.7659 135.177 20.876 133.412 20.876C132.158 20.876 132.152 21.3729 133.471 15.4739C134.993 8.66434 134.875 9.22652 134.804 9.12245C134.683 8.945 131.039 8.96375 130.965 9.14221C130.93 9.22676 128.749 18.9241 128.61 19.6116C128.005 22.6108 131.217 25.3741 134.183 24.4064C134.339 24.3553 134.425 24.3478 134.439 24.3841C134.511 24.5858 134.565 24.5916 136.395 24.5916C137.723 24.5916 138.19 24.5755 138.261 24.5271C138.358 24.4618 138.477 23.943 141.01 12.5674C141.455 10.5664 141.832 8.88851 141.849 8.83881C141.876 8.75419 142.082 8.74857 145.16 8.74857C148.753 8.74857 148.665 8.75599 148.521 8.46314L148.458 8.3357H145.22C142.667 8.3357 141.982 8.32203 141.982 8.27116C141.982 8.23569 142.158 7.42113 142.373 6.46104C142.787 4.60906 142.801 4.52081 142.697 4.42394C142.504 4.24591 138.857 4.35789 138.857 4.54187C138.857 4.57185 138.079 8.0727 138.042 8.20811L138.008 8.3357H132.863H127.719L127.618 7.98737C127.188 6.49237 125.872 5.17115 124.291 4.64704C123.492 4.38194 123.243 4.36202 120.727 4.36202H118.402L118.115 4.54052C117.003 5.23333 116.664 6.83705 117.418 7.84542L117.571 8.05183L120.276 8.07762C123.01 8.10379 123.343 8.12911 123.343 8.31124C123.343 8.32468 121.612 8.3357 119.496 8.3357H115.65L115.613 8.18084C115.593 8.09575 115.555 8.02605 115.528 8.02605C115.502 8.02605 115.472 7.93276 115.463 7.81869C115.44 7.54704 115.339 7.5298 115.316 7.79382C115.306 7.90736 115.275 8.0223 115.246 8.04926C115.218 8.07629 115.192 8.15755 115.189 8.2299C115.184 8.34891 115.18 8.34547 115.132 8.19373C115.103 8.10153 115.055 8.02605 115.025 8.02605C114.995 8.02605 114.971 7.97261 114.971 7.90736C114.971 7.84207 114.948 7.76662 114.919 7.73964C114.891 7.7127 114.859 7.59772 114.849 7.48418C114.84 7.37065 114.806 7.27776 114.776 7.27776C114.745 7.27776 114.712 7.37065 114.702 7.48418C114.693 7.59772 114.661 7.7127 114.633 7.73964C114.604 7.76662 114.58 7.89431 114.58 8.02347C114.579 8.19404 114.564 8.23709 114.525 8.18084C114.495 8.13825 114.47 8.05121 114.469 7.98737C114.469 7.92346 114.445 7.87126 114.416 7.87126C114.387 7.87126 114.355 7.73768 114.346 7.5745C114.325 7.19581 114.228 7.21078 114.185 7.59932C114.167 7.76306 114.148 7.83898 114.141 7.76802C114.136 7.69706 114.094 7.5939 114.048 7.53884C114.004 7.48372 113.966 7.36183 113.966 7.2679C113.966 7.08919 113.891 7.03882 113.833 7.17878C113.815 7.22368 113.796 7.43846 113.793 7.65613C113.789 7.87376 113.776 8.00542 113.762 7.94862C113.748 7.89189 113.715 7.79898 113.687 7.74222C113.66 7.68545 113.63 7.59447 113.621 7.54007C113.58 7.30083 113.465 7.40265 113.465 7.67771C113.465 7.83144 113.446 7.9744 113.422 7.99534C113.4 8.01628 113.351 8.10731 113.315 8.19748C113.253 8.35266 113.25 8.35445 113.245 8.2299C113.243 8.15755 113.218 8.07629 113.19 8.04926C113.162 8.0223 113.13 7.94705 113.12 7.88205C113.093 7.71404 112.993 7.71543 112.972 7.88416C112.943 8.11489 112.85 8.0459 112.85 7.79382C112.85 7.55948 112.769 7.48522 112.695 7.65191C112.672 7.70537 112.643 7.58419 112.627 7.35517C112.6 6.97643 112.505 6.82853 112.47 7.11004C112.461 7.18812 112.429 7.25195 112.4 7.25195C112.372 7.25195 112.348 7.31971 112.348 7.40249C112.348 7.48527 112.319 7.56196 112.284 7.5729C112.248 7.58383 112.204 7.69112 112.186 7.81132C112.146 8.06981 112.054 8.11575 112.014 7.89705C111.972 7.6758 111.878 7.72746 111.85 7.98644L111.828 8.2067L111.765 7.89705C111.698 7.56 111.617 7.49868 111.56 7.74222C111.532 7.86517 111.523 7.8413 111.518 7.6261C111.514 7.47712 111.487 7.35517 111.457 7.35517C111.426 7.35517 111.396 7.10555 111.387 6.77878C111.366 5.98354 111.258 5.96454 111.204 6.74643C111.182 7.06705 111.142 7.35357 111.117 7.38314C111.092 7.41271 111.061 7.59849 111.05 7.79599L111.031 8.15505L111.02 7.75512C111.014 7.52965 110.985 7.35517 110.953 7.35517C110.921 7.35517 110.897 7.20139 110.897 6.99697C110.897 6.79994 110.874 6.62582 110.847 6.61003C110.819 6.59424 110.778 6.31319 110.756 5.98554C110.703 5.19381 110.596 5.20506 110.574 6.00469C110.566 6.33146 110.535 6.58108 110.505 6.58108C110.473 6.58108 110.446 6.9031 110.439 7.36807C110.429 8.00659 110.424 8.05285 110.41 7.6132C110.402 7.31517 110.371 7.02489 110.342 6.96813C110.314 6.91135 110.28 6.54464 110.267 6.15316C110.252 5.76173 110.226 5.42696 110.206 5.40921C110.124 5.33263 110.095 5.49044 110.059 6.20714C110.035 6.69658 110.019 6.82538 110.013 6.56818C110.009 6.34818 109.98 6.16823 109.95 6.16823C109.92 6.16823 109.889 5.91711 109.881 5.58766C109.855 4.65266 109.758 4.90667 109.713 6.02574C109.667 7.16531 109.635 7.49456 109.623 6.95522C109.617 6.74947 109.59 6.58108 109.56 6.58108C109.531 6.58108 109.499 6.40676 109.491 6.19367C109.461 5.49854 109.363 5.76287 109.347 6.58097C109.338 7.03914 109.309 7.35517 109.277 7.35517C109.248 7.35517 109.22 7.53502 109.215 7.75512L109.207 8.15505L109.152 7.75512C109.123 7.53517 109.076 7.35517 109.049 7.35517C109.022 7.35517 109 7.181 109 6.96813C109 6.39246 108.837 6.40417 108.821 6.98103C108.812 7.33422 108.806 7.31208 108.78 6.79164C108.748 6.18753 108.618 5.88739 108.602 6.38328L108.595 6.60688L108.551 6.37466C108.526 6.24693 108.504 5.79796 108.501 5.37695C108.497 4.54011 108.375 4.27089 108.341 5.02413C108.333 5.22761 108.301 5.39414 108.272 5.39414C108.242 5.39414 108.219 5.56831 108.219 5.78119C108.219 5.99608 108.194 6.16823 108.165 6.16823C108.133 6.16823 108.104 6.41909 108.094 6.74818C108.075 7.49032 107.883 7.69267 107.883 6.97189C107.883 6.26381 107.719 6.43813 107.704 7.16165L107.693 7.74222L107.662 6.97231C107.631 6.16255 107.493 5.76869 107.493 6.48788C107.493 6.69301 107.462 6.85671 107.411 6.92431C107.352 7.00203 107.325 7.21248 107.313 7.67121L107.297 8.30992L105.61 8.32359C104.681 8.33101 103.921 8.32312 103.921 8.30593C103.921 8.28866 104.323 7.45518 104.814 6.45366C105.949 4.14016 105.971 4.36202 104.597 4.36202C102.864 4.36202 102.122 4.68812 101.633 5.66461C101.505 5.9215 100.964 8.04871 100.964 8.29695C100.964 8.31828 100.282 8.3357 99.4503 8.3357C98.0352 8.3357 97.9383 8.32976 97.9649 8.24538C97.9813 8.19568 98.3861 7.36069 98.865 6.38978C99.8097 4.47488 99.7753 4.56055 99.6479 4.4431C99.5534 4.35593 95.7685 4.31713 95.6248 4.40181C95.5888 4.42287 95.1317 5.31074 94.609 6.37496L93.6573 8.30992L88.9168 8.32312L84.1763 8.33625L84.2623 8.0909C84.8616 6.39386 83.3231 4.37451 81.4236 4.3629C81.1759 4.3614 81.1369 4.47199 80.7009 6.42023L80.2782 8.30992L78.5776 8.32351L76.8773 8.33711L76.7502 7.93643C76.2949 6.50047 75.0739 5.24716 73.6 4.70293C72.7508 4.38932 72.479 4.36434 69.9034 4.36316L67.5564 4.36202L67.3075 4.50796C66.1229 5.20263 65.7666 7.08733 66.6546 7.96135L66.7727 8.07762L69.3998 8.07879C72.0031 8.07996 72.0293 8.08098 72.2782 8.1949L72.5293 8.30992L68.0697 8.32312C65.6169 8.33039 63.5968 8.32406 63.5806 8.30913C63.5477 8.27866 63.5838 8.10145 64.0511 5.99664C64.3744 4.54042 64.3791 4.5076 64.2731 4.43556C64.1202 4.33183 60.6045 4.32605 60.5117 4.42941C60.465 4.48154 59.6098 8.15294 59.6098 8.30171C59.6098 8.32039 58.9443 8.3357 58.1309 8.3357C57.3175 8.3357 56.6528 8.31828 56.6538 8.29695C56.6547 8.27569 56.8408 7.43387 57.0673 6.42626C57.4386 4.77435 57.4712 4.58284 57.3991 4.47813L57.3191 4.36202H55.5135C53.9077 4.36202 53.6994 4.37141 53.6313 4.44671ZM87.9573 4.51013C86.7853 5.20955 86.4352 6.84231 87.2369 7.86579L87.4026 8.07762H89.2052C91.1898 8.07762 91.9227 7.13001 91.9227 4.56396C91.9227 4.37978 91.75 4.36202 89.956 4.36202H88.205L87.9573 4.51013ZM131.879 4.5365C130.822 5.25413 130.466 6.50836 131.016 7.58291C131.288 8.1145 131.126 8.07762 133.191 8.07762C135.043 8.07762 135.174 8.0641 135.174 7.87353C135.174 7.85048 135.337 7.10318 135.536 6.21292C135.954 4.35108 135.923 4.5463 135.811 4.4431C135.736 4.3727 135.487 4.36217 133.928 4.36331L132.132 4.3646L131.879 4.5365ZM145.666 4.53361C144.573 5.28597 144.248 6.55321 144.86 7.67198C145.102 8.1145 144.792 8.07762 148.28 8.07762C152.203 8.07762 151.896 7.93557 151.531 9.5804C151.409 10.1305 150.616 13.6752 149.771 17.4575C148.925 21.2399 148.233 24.3559 148.233 24.382C148.233 24.4081 148.272 24.4659 148.32 24.5105C148.437 24.6186 151.888 24.6339 152.046 24.5271C152.118 24.4776 152.505 22.8315 153.702 17.47C154.561 13.624 155.333 10.1987 155.417 9.85809C156.033 7.37158 154.765 5.19917 152.297 4.50817C151.9 4.39711 151.799 4.39319 148.902 4.37719L145.917 4.36073L145.666 4.53361ZM144.843 9.0404C144.748 9.07603 144.76 9.02657 143.879 12.9802C143.445 14.9245 142.704 18.2522 142.229 20.375C141.303 24.5286 141.315 24.4585 141.476 24.5382C141.592 24.5954 144.974 24.6161 145.13 24.5604C145.248 24.5188 145.223 24.6169 146.079 20.7727C146.493 18.9136 147.235 15.5879 147.728 13.3823C148.657 9.22277 148.667 9.1705 148.556 9.06845C148.49 9.00665 145.004 8.98032 144.843 9.0404ZM58.6093 13.0016C58.5697 13.0458 58.3285 14.017 58.0733 15.1598C57.8183 16.3027 57.256 18.8212 56.8239 20.7565C55.9673 24.5928 55.9908 24.4614 56.1461 24.5382C56.3122 24.6204 59.7297 24.6101 59.8469 24.5271C59.9121 24.481 60.075 23.8456 60.4194 22.2951C60.6842 21.103 61.1755 18.9004 61.511 17.4003C62.2987 13.8793 62.279 13.5984 61.2066 13.068C60.9 12.9163 58.7355 12.861 58.6093 13.0016ZM79.2718 12.9903C79.2405 13.0273 79.0233 13.9169 78.7903 14.9671C78.5571 16.0173 77.9882 18.5697 77.5262 20.6392C76.5098 25.1919 76.3351 24.5916 78.6755 24.5916H80.479L80.5587 24.4755C80.6274 24.375 81.201 21.8664 82.4964 16.0001C82.9379 14.0015 82.8285 13.5047 81.8495 13.0566C81.5651 12.9265 79.3734 12.8701 79.2718 12.9903ZM99.9589 13.0059C99.9206 13.0484 99.6909 13.9715 99.4487 15.0572C97.1562 25.3131 97.332 24.4554 97.5 24.5382C97.6657 24.6204 101.083 24.6101 101.2 24.5271C101.265 24.4806 101.492 23.5544 102.014 21.2067L102.738 17.9509L102.407 15.5076C102.225 14.1638 102.049 13.0338 102.015 12.9965C101.92 12.891 100.054 12.8996 99.9589 13.0059ZM71.1711 15.7709C73.3127 16.2867 72.6952 19.47 70.2412 20.5643C69.4992 20.8953 67.6462 21.1013 67.6462 20.8529C67.6462 20.8119 67.8973 19.6577 68.2042 18.288C68.5111 16.9183 68.7623 15.7796 68.7623 15.7577C68.7623 15.6645 70.7749 15.6754 71.1711 15.7709Z" fill="white" fill-opacity="0.4"/>
</g>
<defs>
<clipPath id="clip0_275_219">
<rect width="156.271" height="28.9101" fill="white" transform="translate(0.863525 0.0368652)"/>
</clipPath>
</defs>
</svg>
