<svg width="22" height="22" viewBox="0 0 22 22" fill="none" xmlns="http://www.w3.org/2000/svg">
<path d="M20.9438 20.9456L18.9438 18.9456M10.4438 19.9456C11.6914 19.9456 12.9267 19.6998 14.0793 19.2224C15.2319 18.745 16.2792 18.0452 17.1614 17.1631C18.0435 16.2809 18.7433 15.2336 19.2207 14.081C19.6981 12.9285 19.9438 11.6931 19.9438 10.4456C19.9438 9.198 19.6981 7.96266 19.2207 6.81006C18.7433 5.65747 18.0435 4.6102 17.1614 3.72804C16.2792 2.84589 15.2319 2.14612 14.0793 1.6687C12.9267 1.19128 11.6914 0.945557 10.4438 0.945557C7.92429 0.945557 5.50793 1.94645 3.72633 3.72804C1.94474 5.50964 0.943848 7.926 0.943848 10.4456C0.943848 12.9651 1.94474 15.3815 3.72633 17.1631C5.50793 18.9447 7.92429 19.9456 10.4438 19.9456Z" stroke="#606060" stroke-width="1.5" stroke-linecap="round" stroke-linejoin="round"/>
</svg>
