<svg width="31" height="31" viewBox="0 0 31 31" fill="none" xmlns="http://www.w3.org/2000/svg">
<path d="M3.44385 3.44556H5.61885C6.96885 3.44556 8.03135 4.60806 7.91885 5.94556L6.88135 18.3956C6.84084 18.8779 6.90096 19.3634 7.05789 19.8212C7.21483 20.2791 7.46516 20.6994 7.79302 21.0555C8.12089 21.4115 8.51914 21.6956 8.96254 21.8897C9.40594 22.0838 9.88482 22.1837 10.3688 22.1831H23.6813C25.4813 22.1831 27.0563 20.7081 27.1938 18.9206L27.8688 9.54556C28.0188 7.47056 26.4438 5.78306 24.3563 5.78306H8.21885M12.1938 10.9456H27.1938M21.2563 28.4456C21.6707 28.4456 22.0682 28.2809 22.3612 27.9879C22.6542 27.6949 22.8188 27.2975 22.8188 26.8831C22.8188 26.4687 22.6542 26.0712 22.3612 25.7782C22.0682 25.4852 21.6707 25.3206 21.2563 25.3206C20.8419 25.3206 20.4445 25.4852 20.1515 25.7782C19.8585 26.0712 19.6938 26.4687 19.6938 26.8831C19.6938 27.2975 19.8585 27.6949 20.1515 27.9879C20.4445 28.2809 20.8419 28.4456 21.2563 28.4456ZM11.2563 28.4456C11.6707 28.4456 12.0682 28.2809 12.3612 27.9879C12.6542 27.6949 12.8188 27.2975 12.8188 26.8831C12.8188 26.4687 12.6542 26.0712 12.3612 25.7782C12.0682 25.4852 11.6707 25.3206 11.2563 25.3206C10.8419 25.3206 10.4445 25.4852 10.1515 25.7782C9.85847 26.0712 9.69385 26.4687 9.69385 26.8831C9.69385 27.2975 9.85847 27.6949 10.1515 27.9879C10.4445 28.2809 10.8419 28.4456 11.2563 28.4456Z" stroke="#606060" stroke-width="1.5" stroke-miterlimit="10" stroke-linecap="round" stroke-linejoin="round"/>
<circle cx="25.8928" cy="6.36914" r="3.94897" fill="#1DEBF9"/>
</svg>
