<svg width="58" height="58" viewBox="0 0 58 58" fill="none" xmlns="http://www.w3.org/2000/svg">
<path d="M21.6758 8.01001L23.087 6.59875C26.2112 3.47456 31.2766 3.47456 34.4008 6.59875L35.812 8.01001M7.53955 22.1462L6.12829 23.5575C3.0041 26.6817 3.0041 31.747 6.12829 34.8712L14.6077 43.3506M21.6758 50.4187L23.087 51.83C26.2112 54.9542 31.2766 54.9542 34.4008 51.83L42.8801 43.3506M42.8801 15.0781L46.4142 18.6122L49.9482 22.1462L51.3595 23.5575C54.4837 26.6817 54.4837 31.747 51.3595 34.8712L49.9482 36.2825" stroke="white" stroke-opacity="0.5" stroke-width="0.5"/>
<path d="M17.4939 24.5269V33.9019M23.1189 21.4019V37.0269M28.7439 18.2769V40.1519M34.3689 21.4019V37.0269M39.9939 24.5269V33.9019" stroke="white" stroke-width="1.5" stroke-linecap="round" stroke-linejoin="round"/>
</svg>
